<svg width="20" height="20" viewBox="0 0 20 20" fill="none" xmlns="http://www.w3.org/2000/svg">
<path d="M0 9.6C0 5.07452 0 2.81177 1.40589 1.40589C2.81177 0 5.07452 0 9.6 0H10.4C14.9255 0 17.1882 0 18.5941 1.40589C20 2.81177 20 5.07452 20 9.6V10.4C20 14.9255 20 17.1882 18.5941 18.5941C17.1882 20 14.9255 20 10.4 20H9.6C5.07452 20 2.81177 20 1.40589 18.5941C0 17.1882 0 14.9255 0 10.4V9.6Z" fill="#0077FF"/>
<path d="M10.6416 14.4085C6.08331 14.4085 3.48333 11.2835 3.375 6.0835H5.65833C5.73333 9.90016 7.41663 11.5168 8.74996 11.8501V6.0835H10.9V9.37515C12.2167 9.23348 13.5999 7.7335 14.0665 6.0835H16.2166C15.8583 8.11683 14.3583 9.61681 13.2916 10.2335C14.3583 10.7335 16.0667 12.0418 16.7167 14.4085H14.3499C13.8416 12.8252 12.575 11.6001 10.9 11.4335V14.4085H10.6416Z" fill="white"/>
</svg>
